<mxfile host="app.diagrams.net" agent="Mozilla/5.0 (Windows NT 10.0; Win64; x64) AppleWebKit/537.36 (KHTML, like Gecko) Chrome/139.0.0.0 Safari/537.36" version="28.1.1">
  <diagram id="C5RBs43oDa-KdzZeNtuy" name="Page-1">
    <mxGraphModel grid="1" page="1" gridSize="10" guides="1" tooltips="1" connect="1" arrows="1" fold="1" pageScale="1" pageWidth="827" pageHeight="1169" math="0" shadow="0">
      <root>
        <mxCell id="WIyWlLk6GJQsqaUBKTNV-0" />
        <mxCell id="WIyWlLk6GJQsqaUBKTNV-1" parent="WIyWlLk6GJQsqaUBKTNV-0" />
        <mxCell id="AwS022Rujj1-3uTSAjEN-37" style="edgeStyle=orthogonalEdgeStyle;rounded=0;orthogonalLoop=1;jettySize=auto;html=1;exitX=0.5;exitY=1;exitDx=0;exitDy=0;entryX=0.5;entryY=0;entryDx=0;entryDy=0;" edge="1" parent="WIyWlLk6GJQsqaUBKTNV-1" source="WIyWlLk6GJQsqaUBKTNV-3" target="WIyWlLk6GJQsqaUBKTNV-6">
          <mxGeometry relative="1" as="geometry" />
        </mxCell>
        <mxCell id="WIyWlLk6GJQsqaUBKTNV-3" value="Control Failure" style="rounded=1;whiteSpace=wrap;html=1;fontSize=12;glass=0;strokeWidth=1;shadow=0;" vertex="1" parent="WIyWlLk6GJQsqaUBKTNV-1">
          <mxGeometry x="214" y="40" width="120" height="40" as="geometry" />
        </mxCell>
        <mxCell id="WIyWlLk6GJQsqaUBKTNV-5" value="No" style="edgeStyle=orthogonalEdgeStyle;rounded=0;html=1;jettySize=auto;orthogonalLoop=1;fontSize=11;endArrow=block;endFill=0;endSize=8;strokeWidth=1;shadow=0;labelBackgroundColor=none;" edge="1" parent="WIyWlLk6GJQsqaUBKTNV-1" source="WIyWlLk6GJQsqaUBKTNV-6" target="WIyWlLk6GJQsqaUBKTNV-7">
          <mxGeometry y="10" relative="1" as="geometry">
            <mxPoint as="offset" />
          </mxGeometry>
        </mxCell>
        <mxCell id="AwS022Rujj1-3uTSAjEN-6" style="rounded=0;orthogonalLoop=1;jettySize=auto;html=1;exitX=0.5;exitY=1;exitDx=0;exitDy=0;entryX=0.5;entryY=0;entryDx=0;entryDy=0;" edge="1" parent="WIyWlLk6GJQsqaUBKTNV-1" source="WIyWlLk6GJQsqaUBKTNV-6" target="AwS022Rujj1-3uTSAjEN-3">
          <mxGeometry relative="1" as="geometry" />
        </mxCell>
        <mxCell id="AwS022Rujj1-3uTSAjEN-10" value="Yes" style="edgeLabel;html=1;align=center;verticalAlign=middle;resizable=0;points=[];" connectable="0" vertex="1" parent="AwS022Rujj1-3uTSAjEN-6">
          <mxGeometry x="-0.1727" y="-3" relative="1" as="geometry">
            <mxPoint as="offset" />
          </mxGeometry>
        </mxCell>
        <mxCell id="WIyWlLk6GJQsqaUBKTNV-6" value="Check SN for rule existence?" style="rhombus;whiteSpace=wrap;html=1;shadow=0;fontFamily=Helvetica;fontSize=12;align=center;strokeWidth=1;spacing=6;spacingTop=-4;" vertex="1" parent="WIyWlLk6GJQsqaUBKTNV-1">
          <mxGeometry x="224" y="120" width="100" height="80" as="geometry" />
        </mxCell>
        <mxCell id="AwS022Rujj1-3uTSAjEN-5" style="rounded=0;orthogonalLoop=1;jettySize=auto;html=1;exitX=0.5;exitY=1;exitDx=0;exitDy=0;entryX=0.75;entryY=0;entryDx=0;entryDy=0;" edge="1" parent="WIyWlLk6GJQsqaUBKTNV-1" source="WIyWlLk6GJQsqaUBKTNV-7" target="AwS022Rujj1-3uTSAjEN-3">
          <mxGeometry relative="1" as="geometry">
            <mxPoint x="314" y="310" as="targetPoint" />
          </mxGeometry>
        </mxCell>
        <mxCell id="WIyWlLk6GJQsqaUBKTNV-7" value="Create Rule Object" style="rounded=1;whiteSpace=wrap;html=1;fontSize=12;glass=0;strokeWidth=1;shadow=0;" vertex="1" parent="WIyWlLk6GJQsqaUBKTNV-1">
          <mxGeometry x="374" y="140" width="120" height="40" as="geometry" />
        </mxCell>
        <mxCell id="AwS022Rujj1-3uTSAjEN-8" style="rounded=0;orthogonalLoop=1;jettySize=auto;html=1;exitX=0.5;exitY=1;exitDx=0;exitDy=0;entryX=0.5;entryY=0;entryDx=0;entryDy=0;" edge="1" parent="WIyWlLk6GJQsqaUBKTNV-1" source="AwS022Rujj1-3uTSAjEN-3" target="AwS022Rujj1-3uTSAjEN-7">
          <mxGeometry relative="1" as="geometry" />
        </mxCell>
        <mxCell id="AwS022Rujj1-3uTSAjEN-3" value="Associate control failure review task" style="rounded=1;whiteSpace=wrap;html=1;fontSize=12;glass=0;strokeWidth=1;shadow=0;" vertex="1" parent="WIyWlLk6GJQsqaUBKTNV-1">
          <mxGeometry x="214" y="280" width="120" height="60" as="geometry" />
        </mxCell>
        <mxCell id="AwS022Rujj1-3uTSAjEN-14" style="rounded=0;orthogonalLoop=1;jettySize=auto;html=1;exitX=0;exitY=1;exitDx=0;exitDy=0;entryX=1;entryY=0;entryDx=0;entryDy=0;" edge="1" parent="WIyWlLk6GJQsqaUBKTNV-1" source="AwS022Rujj1-3uTSAjEN-7" target="AwS022Rujj1-3uTSAjEN-13">
          <mxGeometry relative="1" as="geometry" />
        </mxCell>
        <mxCell id="AwS022Rujj1-3uTSAjEN-38" value="Fix Rule" style="edgeLabel;html=1;align=center;verticalAlign=middle;resizable=0;points=[];" connectable="0" vertex="1" parent="AwS022Rujj1-3uTSAjEN-14">
          <mxGeometry x="0.1164" y="5" relative="1" as="geometry">
            <mxPoint as="offset" />
          </mxGeometry>
        </mxCell>
        <mxCell id="AwS022Rujj1-3uTSAjEN-18" style="rounded=0;orthogonalLoop=1;jettySize=auto;html=1;exitX=1;exitY=1;exitDx=0;exitDy=0;entryX=0;entryY=0;entryDx=0;entryDy=0;" edge="1" parent="WIyWlLk6GJQsqaUBKTNV-1" source="AwS022Rujj1-3uTSAjEN-7" target="AwS022Rujj1-3uTSAjEN-17">
          <mxGeometry relative="1" as="geometry" />
        </mxCell>
        <mxCell id="AwS022Rujj1-3uTSAjEN-19" value="No" style="edgeLabel;html=1;align=center;verticalAlign=middle;resizable=0;points=[];" connectable="0" vertex="1" parent="AwS022Rujj1-3uTSAjEN-18">
          <mxGeometry x="-0.1897" y="-1" relative="1" as="geometry">
            <mxPoint as="offset" />
          </mxGeometry>
        </mxCell>
        <mxCell id="AwS022Rujj1-3uTSAjEN-7" value="Remediation Possible?" style="rhombus;whiteSpace=wrap;html=1;shadow=0;fontFamily=Helvetica;fontSize=12;align=center;strokeWidth=1;spacing=6;spacingTop=-4;" vertex="1" parent="WIyWlLk6GJQsqaUBKTNV-1">
          <mxGeometry x="224" y="400" width="100" height="80" as="geometry" />
        </mxCell>
        <mxCell id="AwS022Rujj1-3uTSAjEN-13" value="Close Control Failure Review Task" style="rounded=1;whiteSpace=wrap;html=1;fontSize=12;glass=0;strokeWidth=1;shadow=0;" vertex="1" parent="WIyWlLk6GJQsqaUBKTNV-1">
          <mxGeometry x="94" y="520" width="120" height="40" as="geometry" />
        </mxCell>
        <mxCell id="AwS022Rujj1-3uTSAjEN-23" style="rounded=0;orthogonalLoop=1;jettySize=auto;html=1;exitX=0;exitY=1;exitDx=0;exitDy=0;entryX=1;entryY=0;entryDx=0;entryDy=0;" edge="1" parent="WIyWlLk6GJQsqaUBKTNV-1" source="AwS022Rujj1-3uTSAjEN-17" target="AwS022Rujj1-3uTSAjEN-22">
          <mxGeometry relative="1" as="geometry" />
        </mxCell>
        <mxCell id="AwS022Rujj1-3uTSAjEN-17" value="Open PER Ticket" style="rounded=1;whiteSpace=wrap;html=1;fontSize=12;glass=0;strokeWidth=1;shadow=0;" vertex="1" parent="WIyWlLk6GJQsqaUBKTNV-1">
          <mxGeometry x="334" y="520" width="120" height="40" as="geometry" />
        </mxCell>
        <mxCell id="AwS022Rujj1-3uTSAjEN-26" style="rounded=0;orthogonalLoop=1;jettySize=auto;html=1;exitX=1;exitY=0.5;exitDx=0;exitDy=0;entryX=0;entryY=0.5;entryDx=0;entryDy=0;" edge="1" parent="WIyWlLk6GJQsqaUBKTNV-1" source="AwS022Rujj1-3uTSAjEN-22" target="AwS022Rujj1-3uTSAjEN-25">
          <mxGeometry relative="1" as="geometry" />
        </mxCell>
        <mxCell id="AwS022Rujj1-3uTSAjEN-28" value="Yes" style="edgeLabel;html=1;align=center;verticalAlign=middle;resizable=0;points=[];" connectable="0" vertex="1" parent="AwS022Rujj1-3uTSAjEN-26">
          <mxGeometry x="-0.2857" y="1" relative="1" as="geometry">
            <mxPoint as="offset" />
          </mxGeometry>
        </mxCell>
        <mxCell id="AwS022Rujj1-3uTSAjEN-27" style="rounded=0;orthogonalLoop=1;jettySize=auto;html=1;exitX=0;exitY=0;exitDx=0;exitDy=0;entryX=1;entryY=1;entryDx=0;entryDy=0;" edge="1" parent="WIyWlLk6GJQsqaUBKTNV-1" source="AwS022Rujj1-3uTSAjEN-22" target="AwS022Rujj1-3uTSAjEN-13">
          <mxGeometry relative="1" as="geometry">
            <mxPoint x="134" y="650" as="targetPoint" />
          </mxGeometry>
        </mxCell>
        <mxCell id="AwS022Rujj1-3uTSAjEN-29" value="Delete Rule" style="edgeLabel;html=1;align=center;verticalAlign=middle;resizable=0;points=[];" connectable="0" vertex="1" parent="AwS022Rujj1-3uTSAjEN-27">
          <mxGeometry x="-0.2294" relative="1" as="geometry">
            <mxPoint as="offset" />
          </mxGeometry>
        </mxCell>
        <mxCell id="AwS022Rujj1-3uTSAjEN-22" value="Is exception Approved?" style="rhombus;whiteSpace=wrap;html=1;shadow=0;fontFamily=Helvetica;fontSize=12;align=center;strokeWidth=1;spacing=6;spacingTop=-4;" vertex="1" parent="WIyWlLk6GJQsqaUBKTNV-1">
          <mxGeometry x="224" y="598.7" width="100" height="80" as="geometry" />
        </mxCell>
        <mxCell id="AwS022Rujj1-3uTSAjEN-40" style="edgeStyle=orthogonalEdgeStyle;rounded=0;orthogonalLoop=1;jettySize=auto;html=1;exitX=1;exitY=0.5;exitDx=0;exitDy=0;" edge="1" parent="WIyWlLk6GJQsqaUBKTNV-1" source="AwS022Rujj1-3uTSAjEN-25">
          <mxGeometry relative="1" as="geometry">
            <mxPoint x="614" y="638.7" as="targetPoint" />
          </mxGeometry>
        </mxCell>
        <mxCell id="AwS022Rujj1-3uTSAjEN-25" value="Close Control Failure Review Ticket with an exception approved state." style="rounded=1;whiteSpace=wrap;html=1;fontSize=12;glass=0;strokeWidth=1;shadow=0;" vertex="1" parent="WIyWlLk6GJQsqaUBKTNV-1">
          <mxGeometry x="414" y="598.7" width="120" height="80" as="geometry" />
        </mxCell>
        <mxCell id="AwS022Rujj1-3uTSAjEN-41" value="Create Rule Control Whitelist in FireMon" style="rounded=1;whiteSpace=wrap;html=1;fontSize=12;glass=0;strokeWidth=1;shadow=0;" vertex="1" parent="WIyWlLk6GJQsqaUBKTNV-1">
          <mxGeometry x="614" y="618.7" width="120" height="40" as="geometry" />
        </mxCell>
        <mxCell id="AwS022Rujj1-3uTSAjEN-42" value="" style="shape=table;startSize=0;container=1;collapsible=0;childLayout=tableLayout;fontSize=16;" vertex="1" parent="WIyWlLk6GJQsqaUBKTNV-1">
          <mxGeometry x="640" y="190" width="580" height="300" as="geometry" />
        </mxCell>
        <mxCell id="AwS022Rujj1-3uTSAjEN-43" value="" style="shape=tableRow;horizontal=0;startSize=0;swimlaneHead=0;swimlaneBody=0;strokeColor=inherit;top=0;left=0;bottom=0;right=0;collapsible=0;dropTarget=0;fillColor=none;points=[[0,0.5],[1,0.5]];portConstraint=eastwest;fontSize=16;" vertex="1" parent="AwS022Rujj1-3uTSAjEN-42">
          <mxGeometry width="580" height="20" as="geometry" />
        </mxCell>
        <mxCell id="AwS022Rujj1-3uTSAjEN-44" value="Need" style="shape=partialRectangle;html=1;whiteSpace=wrap;connectable=0;strokeColor=inherit;overflow=hidden;fillColor=none;top=0;left=0;bottom=0;right=0;pointerEvents=1;fontSize=16;" vertex="1" parent="AwS022Rujj1-3uTSAjEN-43">
          <mxGeometry width="100" height="20" as="geometry">
            <mxRectangle width="100" height="20" as="alternateBounds" />
          </mxGeometry>
        </mxCell>
        <mxCell id="AwS022Rujj1-3uTSAjEN-45" value="Platform" style="shape=partialRectangle;html=1;whiteSpace=wrap;connectable=0;strokeColor=inherit;overflow=hidden;fillColor=none;top=0;left=0;bottom=0;right=0;pointerEvents=1;fontSize=16;" vertex="1" parent="AwS022Rujj1-3uTSAjEN-43">
          <mxGeometry x="100" width="70" height="20" as="geometry">
            <mxRectangle width="70" height="20" as="alternateBounds" />
          </mxGeometry>
        </mxCell>
        <mxCell id="AwS022Rujj1-3uTSAjEN-46" value="Notes" style="shape=partialRectangle;html=1;whiteSpace=wrap;connectable=0;strokeColor=inherit;overflow=hidden;fillColor=none;top=0;left=0;bottom=0;right=0;pointerEvents=1;fontSize=16;" vertex="1" parent="AwS022Rujj1-3uTSAjEN-43">
          <mxGeometry x="170" width="410" height="20" as="geometry">
            <mxRectangle width="410" height="20" as="alternateBounds" />
          </mxGeometry>
        </mxCell>
        <mxCell id="AwS022Rujj1-3uTSAjEN-47" value="" style="shape=tableRow;horizontal=0;startSize=0;swimlaneHead=0;swimlaneBody=0;strokeColor=inherit;top=0;left=0;bottom=0;right=0;collapsible=0;dropTarget=0;fillColor=none;points=[[0,0.5],[1,0.5]];portConstraint=eastwest;fontSize=16;" vertex="1" parent="AwS022Rujj1-3uTSAjEN-42">
          <mxGeometry y="20" width="580" height="100" as="geometry" />
        </mxCell>
        <mxCell id="AwS022Rujj1-3uTSAjEN-48" value="Rule Object" style="shape=partialRectangle;html=1;whiteSpace=wrap;connectable=0;strokeColor=inherit;overflow=hidden;fillColor=none;top=0;left=0;bottom=0;right=0;pointerEvents=1;fontSize=16;" vertex="1" parent="AwS022Rujj1-3uTSAjEN-47">
          <mxGeometry width="100" height="100" as="geometry">
            <mxRectangle width="100" height="100" as="alternateBounds" />
          </mxGeometry>
        </mxCell>
        <mxCell id="AwS022Rujj1-3uTSAjEN-49" value="SN" style="shape=partialRectangle;html=1;whiteSpace=wrap;connectable=0;strokeColor=inherit;overflow=hidden;fillColor=none;top=0;left=0;bottom=0;right=0;pointerEvents=1;fontSize=16;" vertex="1" parent="AwS022Rujj1-3uTSAjEN-47">
          <mxGeometry x="100" width="70" height="100" as="geometry">
            <mxRectangle width="70" height="100" as="alternateBounds" />
          </mxGeometry>
        </mxCell>
        <mxCell id="AwS022Rujj1-3uTSAjEN-50" value="- SOC is currently using &#39;&lt;a href=&quot;https://aegon.service-now.com/nav_to.do?uri=%2Fu_cmdb_ci_generic.do%3Fsys_id%3D6065db7097df9ad00024b6a3f153af8e%26sysparm_view%3D&quot;&gt;generic&lt;/a&gt;&#39;&lt;br&gt;- Relationship to Panorama?&lt;br&gt;- Rule name, pa uuid, link to &lt;a href=&quot;https://crfiremonapp.us.aegon.com/securitymanager/#/domain/1/listrules?page=1&amp;amp;count=20&amp;amp;advancedMode=1&amp;amp;siql=devicegroup%7Bid%3D93%7D%20AND%20rule%20%7B%20vendorIdentifier%20%3D%20&#39;32c67186-bec9-4678-83b9-3ff8154e31df&#39;%20%7D&quot;&gt;FireMon&lt;/a&gt;" style="shape=partialRectangle;html=1;whiteSpace=wrap;connectable=0;strokeColor=inherit;overflow=hidden;fillColor=none;top=0;left=0;bottom=0;right=0;pointerEvents=1;fontSize=16;" vertex="1" parent="AwS022Rujj1-3uTSAjEN-47">
          <mxGeometry x="170" width="410" height="100" as="geometry">
            <mxRectangle width="410" height="100" as="alternateBounds" />
          </mxGeometry>
        </mxCell>
        <mxCell id="AwS022Rujj1-3uTSAjEN-51" value="" style="shape=tableRow;horizontal=0;startSize=0;swimlaneHead=0;swimlaneBody=0;strokeColor=inherit;top=0;left=0;bottom=0;right=0;collapsible=0;dropTarget=0;fillColor=none;points=[[0,0.5],[1,0.5]];portConstraint=eastwest;fontSize=16;" vertex="1" parent="AwS022Rujj1-3uTSAjEN-42">
          <mxGeometry y="120" width="580" height="90" as="geometry" />
        </mxCell>
        <mxCell id="AwS022Rujj1-3uTSAjEN-52" value="Control Failure Task" style="shape=partialRectangle;html=1;whiteSpace=wrap;connectable=0;strokeColor=inherit;overflow=hidden;fillColor=none;top=0;left=0;bottom=0;right=0;pointerEvents=1;fontSize=16;" vertex="1" parent="AwS022Rujj1-3uTSAjEN-51">
          <mxGeometry width="100" height="90" as="geometry">
            <mxRectangle width="100" height="90" as="alternateBounds" />
          </mxGeometry>
        </mxCell>
        <mxCell id="AwS022Rujj1-3uTSAjEN-53" value="SN" style="shape=partialRectangle;html=1;whiteSpace=wrap;connectable=0;strokeColor=inherit;overflow=hidden;fillColor=none;top=0;left=0;bottom=0;right=0;pointerEvents=1;fontSize=16;" vertex="1" parent="AwS022Rujj1-3uTSAjEN-51">
          <mxGeometry x="100" width="70" height="90" as="geometry">
            <mxRectangle width="70" height="90" as="alternateBounds" />
          </mxGeometry>
        </mxCell>
        <mxCell id="AwS022Rujj1-3uTSAjEN-54" value="- Control ID, Control Name, Rule Object, Link to FireMon,&lt;div&gt;- Close States: Fixed, Rule Deleted, Exception Approved&lt;br&gt;- Automation if exception approved &amp;gt; Create whitelist in firemon&lt;/div&gt;" style="shape=partialRectangle;html=1;whiteSpace=wrap;connectable=0;strokeColor=inherit;overflow=hidden;fillColor=none;top=0;left=0;bottom=0;right=0;pointerEvents=1;fontSize=16;" vertex="1" parent="AwS022Rujj1-3uTSAjEN-51">
          <mxGeometry x="170" width="410" height="90" as="geometry">
            <mxRectangle width="410" height="90" as="alternateBounds" />
          </mxGeometry>
        </mxCell>
        <mxCell id="AwS022Rujj1-3uTSAjEN-55" value="" style="shape=tableRow;horizontal=0;startSize=0;swimlaneHead=0;swimlaneBody=0;strokeColor=inherit;top=0;left=0;bottom=0;right=0;collapsible=0;dropTarget=0;fillColor=none;points=[[0,0.5],[1,0.5]];portConstraint=eastwest;fontSize=16;" vertex="1" parent="AwS022Rujj1-3uTSAjEN-42">
          <mxGeometry y="210" width="580" height="90" as="geometry" />
        </mxCell>
        <mxCell id="AwS022Rujj1-3uTSAjEN-56" value="Lambda Automation" style="shape=partialRectangle;html=1;whiteSpace=wrap;connectable=0;strokeColor=inherit;overflow=hidden;fillColor=none;top=0;left=0;bottom=0;right=0;pointerEvents=1;fontSize=16;" vertex="1" parent="AwS022Rujj1-3uTSAjEN-55">
          <mxGeometry width="100" height="90" as="geometry">
            <mxRectangle width="100" height="90" as="alternateBounds" />
          </mxGeometry>
        </mxCell>
        <mxCell id="AwS022Rujj1-3uTSAjEN-57" value="AWS" style="shape=partialRectangle;html=1;whiteSpace=wrap;connectable=0;strokeColor=inherit;overflow=hidden;fillColor=none;top=0;left=0;bottom=0;right=0;pointerEvents=1;fontSize=16;" vertex="1" parent="AwS022Rujj1-3uTSAjEN-55">
          <mxGeometry x="100" width="70" height="90" as="geometry">
            <mxRectangle width="70" height="90" as="alternateBounds" />
          </mxGeometry>
        </mxCell>
        <mxCell id="AwS022Rujj1-3uTSAjEN-58" value="- Reviews FireMon control failures daily&lt;br&gt;- Creates Rule Object in S/N if necessary&lt;br&gt;-Creates Control Failure Task" style="shape=partialRectangle;html=1;whiteSpace=wrap;connectable=0;strokeColor=inherit;overflow=hidden;fillColor=none;top=0;left=0;bottom=0;right=0;pointerEvents=1;fontSize=16;" vertex="1" parent="AwS022Rujj1-3uTSAjEN-55">
          <mxGeometry x="170" width="410" height="90" as="geometry">
            <mxRectangle width="410" height="90" as="alternateBounds" />
          </mxGeometry>
        </mxCell>
      </root>
    </mxGraphModel>
  </diagram>
</mxfile>
